<svg xmlns="http://www.w3.org/2000/svg" xmlns:xlink="http://www.w3.org/1999/xlink" xmlns:lucid="lucid" width="2038.67" height="1575.33"><g transform="translate(0 0)" lucid:page-tab-id="0_0"><path d="M0 0h2038.67v1575.33H0z" fill="#fff"/><path d="M190.02 216.5c0-4.42 3.58-8 8-8h577.8c4.4 0 8 3.58 8 8v421.96c0 4.42-3.6 8-8 8H198c-4.42 0-8-3.58-8-8z" stroke="#666" fill="#fff"/><path d="M190.02 258h593.8M190 550h593.8" stroke="#666" fill="none"/><use xlink:href="#a" transform="matrix(1,0,0,1,198.01608683081508,208.5) translate(119.62235082304528 30.662962962962965)"/><use xlink:href="#b" transform="matrix(1,0,0,1,198.01608683081508,208.5) translate(198.1173096707819 30.662962962962965)"/><use xlink:href="#c" transform="matrix(1,0,0,1,202.01608683081508,266.47777777777776) translate(0 92.69629629629631)"/><use xlink:href="#d" transform="matrix(1,0,0,1,202.01608683081508,266.47777777777776) translate(144.87746913580247 92.69629629629631)"/><use xlink:href="#c" transform="matrix(1,0,0,1,202.01608683081508,266.47777777777776) translate(0 126.67407407407407)"/><use xlink:href="#e" transform="matrix(1,0,0,1,202.01608683081508,266.47777777777776) translate(144.87746913580247 126.67407407407407)"/><use xlink:href="#f" transform="matrix(1,0,0,1,202.01608683081508,266.47777777777776) translate(0 160.65185185185186)"/><use xlink:href="#g" transform="matrix(1,0,0,1,202.01608683081508,266.47777777777776) translate(152.74269547325102 160.65185185185186)"/><use xlink:href="#h" transform="matrix(1,0,0,1,202.01608683081508,266.47777777777776) translate(0 194.62962962962962)"/><use xlink:href="#i" transform="matrix(1,0,0,1,202.01608683081508,266.47777777777776) translate(103.66368312757203 194.62962962962962)"/><use xlink:href="#j" transform="matrix(1,0,0,1,202.01608683081508,558.4141015215464) translate(0 46.162962962962965)"/><use xlink:href="#k" transform="matrix(1,0,0,1,202.01608683081508,558.4141015215464) translate(284.64254115226333 46.162962962962965)"/><path d="M1190.78 703.42c0-4.42 3.58-8 8-8h337.03c4.43 0 8 3.58 8 8v192.5c0 4.4-3.57 8-8 8H1198.8c-4.42 0-8-3.6-8-8z" stroke="#666" fill="#fff"/><path d="M1190.78 779h353.03m-353.02 87h353.03" stroke="#666" fill="none"/><use xlink:href="#l" transform="matrix(1,0,0,1,1198.7781596779978,695.4151616603042) translate(26.285468106995893 47.662962962962965)"/><use xlink:href="#m" transform="matrix(1,0,0,1,1198.7781596779978,695.4151616603042) translate(112.64565329218108 47.662962962962965)"/><path d="M1190.78 960.87c0-4.42 3.58-8 8-8h337.03c4.43 0 8 3.58 8 8v579.16c0 4.42-3.57 8-8 8H1198.8c-4.42 0-8-3.58-8-8z" stroke="#666" fill="#fff"/><path d="M1190.78 1003h353.03m-353.02 295h353.03" stroke="#666" fill="none"/><use xlink:href="#a" transform="matrix(1,0,0,1,1198.7781596779978,952.8710503391826) translate(68.60038580246913 30.662962962962965)"/><use xlink:href="#n" transform="matrix(1,0,0,1,1198.7781596779978,952.8710503391826) translate(147.09534465020576 30.662962962962965)"/><use xlink:href="#o" transform="matrix(1,0,0,1,1202.7781596779978,1010.8488281169604) translate(0 43.22962962962965)"/><use xlink:href="#p" transform="matrix(1,0,0,1,1202.7781596779978,1010.8488281169604) translate(91.00066872427985 43.22962962962965)"/><use xlink:href="#o" transform="matrix(1,0,0,1,1202.7781596779978,1010.8488281169604) translate(0 77.20740740740743)"/><use xlink:href="#d" transform="matrix(1,0,0,1,1202.7781596779978,1010.8488281169604) translate(91.00066872427985 77.20740740740743)"/><use xlink:href="#o" transform="matrix(1,0,0,1,1202.7781596779978,1010.8488281169604) translate(0 111.18518518518519)"/><use xlink:href="#e" transform="matrix(1,0,0,1,1202.7781596779978,1010.8488281169604) translate(91.00066872427985 111.18518518518519)"/><use xlink:href="#q" transform="matrix(1,0,0,1,1202.7781596779978,1010.8488281169604) translate(0 145.16296296296298)"/><use xlink:href="#r" transform="matrix(1,0,0,1,1202.7781596779978,1010.8488281169604) translate(76.92191358024692 145.16296296296298)"/><use xlink:href="#s" transform="matrix(1,0,0,1,1202.7781596779978,1010.8488281169604) translate(0 179.14074074074074)"/><use xlink:href="#t" transform="matrix(1,0,0,1,1202.7781596779978,1010.8488281169604) translate(47.03405349794239 179.14074074074074)"/><use xlink:href="#u" transform="matrix(1,0,0,1,1202.7781596779978,1010.8488281169604) translate(0 213.1185185185185)"/><use xlink:href="#v" transform="matrix(1,0,0,1,1202.7781596779978,1010.8488281169604) translate(77.78708847736627 213.1185185185185)"/><use xlink:href="#w" transform="matrix(1,0,0,1,1202.7781596779978,1010.8488281169604) translate(0 247.09629629629626)"/><use xlink:href="#x" transform="matrix(1,0,0,1,1202.7781596779978,1305.5408366516008) translate(0 38.21851851851853)"/><use xlink:href="#y" transform="matrix(1,0,0,1,1202.7781596779978,1305.5408366516008) translate(98.15802469135804 38.21851851851853)"/><use xlink:href="#x" transform="matrix(1,0,0,1,1202.7781596779978,1305.5408366516008) translate(0 72.19629629629631)"/><use xlink:href="#z" transform="matrix(1,0,0,1,1202.7781596779978,1305.5408366516008) translate(98.15802469135804 72.19629629629631)"/><use xlink:href="#x" transform="matrix(1,0,0,1,1202.7781596779978,1305.5408366516008) translate(0 106.17407407407407)"/><use xlink:href="#A" transform="matrix(1,0,0,1,1202.7781596779978,1305.5408366516008) translate(98.15802469135804 106.17407407407407)"/><use xlink:href="#B" transform="matrix(1,0,0,1,1202.7781596779978,1305.5408366516008) translate(0 140.15185185185186)"/><use xlink:href="#C" transform="matrix(1,0,0,1,1202.7781596779978,1305.5408366516008) translate(106.0232510288066 140.15185185185186)"/><use xlink:href="#x" transform="matrix(1,0,0,1,1202.7781596779978,1305.5408366516008) translate(0 174.12962962962962)"/><use xlink:href="#D" transform="matrix(1,0,0,1,1202.7781596779978,1305.5408366516008) translate(98.15802469135804 174.12962962962962)"/><use xlink:href="#x" transform="matrix(1,0,0,1,1202.7781596779978,1305.5408366516008) translate(0 208.10740740740738)"/><use xlink:href="#E" transform="matrix(1,0,0,1,1202.7781596779978,1305.5408366516008) translate(98.15802469135804 208.10740740740738)"/><path d="M180.1 12c0-6.63 5.38-12 12-12h1677.63c6.62 0 12 5.37 12 12v103.93c0 6.63-5.38 12-12 12H192.1c-6.62 0-12-5.37-12-12z" stroke="#000" stroke-opacity="0" stroke-width="2" fill="#fff" fill-opacity="0"/><g><use xlink:href="#F" transform="matrix(1,0,0,1,185.10791305174553,5) translate(821.696450617284 64.66296296296296)"/></g><path d="M632.25 141.53c0-6.62 5.37-12 12-12h780.58c6.63 0 12 5.38 12 12v44.8c0 6.64-5.37 12-12 12H644.25c-6.63 0-12-5.36-12-12z" stroke="#000" stroke-opacity="0" stroke-width="2" fill="#fff" fill-opacity="0"/><g><use xlink:href="#G" transform="matrix(1,0,0,1,637.2512443882383,134.5349407929649) translate(176.408487654321 35.162962962962965)"/><use xlink:href="#H" transform="matrix(1,0,0,1,637.2512443882383,134.5349407929649) translate(284.3193930041152 35.162962962962965)"/><use xlink:href="#I" transform="matrix(1,0,0,1,637.2512443882383,134.5349407929649) translate(347.2412037037037 35.162962962962965)"/><use xlink:href="#J" transform="matrix(1,0,0,1,637.2512443882383,134.5349407929649) translate(370.28631687242796 35.162962962962965)"/><use xlink:href="#K" transform="matrix(1,0,0,1,637.2512443882383,134.5349407929649) translate(508.4783436213992 35.162962962962965)"/><use xlink:href="#L" transform="matrix(1,0,0,1,637.2512443882383,134.5349407929649) translate(555.6697016460905 35.162962962962965)"/></g><path d="M572.46 112.75h924.34M572.46 112.75h-3M1496.8 112.75h3" stroke="#b2b2b2" stroke-width="2" fill="none"/><path d="M852.86 216.5c0-4.42 3.58-8 8-8h1012.87c4.4 0 8 3.58 8 8v421.96c0 4.42-3.6 8-8 8H860.86c-4.42 0-8-3.58-8-8z" stroke="#666" fill="#fff"/><path d="M852.86 258h1028.87M852.86 341h1028.87" stroke="#666" fill="none"/><g><use xlink:href="#M" transform="matrix(1,0,0,1,860.8629902117619,208.5) translate(410.622890946502 30.662962962962965)"/><use xlink:href="#N" transform="matrix(1,0,0,1,860.8629902117619,208.5) translate(489.1178497942386 30.662962962962965)"/></g><g><use xlink:href="#O" transform="matrix(1,0,0,1,864.8629902117619,266.47777777777776) translate(0 39.162962962962965)"/><use xlink:href="#P" transform="matrix(1,0,0,1,864.8629902117619,266.47777777777776) translate(216.29372427983537 39.162962962962965)"/></g><g><use xlink:href="#Q" transform="matrix(1,0,0,1,864.8629902117619,348.68715998175406) translate(0 82.7074074074074)"/><use xlink:href="#R" transform="matrix(1,0,0,1,864.8629902117619,348.68715998175406) translate(223.45108024691356 82.7074074074074)"/><use xlink:href="#S" transform="matrix(1,0,0,1,864.8629902117619,348.68715998175406) translate(552.8467592592591 82.7074074074074)"/><use xlink:href="#T" transform="matrix(1,0,0,1,864.8629902117619,348.68715998175406) translate(633.9372427983537 82.7074074074074)"/><use xlink:href="#U" transform="matrix(1,0,0,1,864.8629902117619,348.68715998175406) translate(713.3760288065841 82.7074074074074)"/><use xlink:href="#V" transform="matrix(1,0,0,1,864.8629902117619,348.68715998175406) translate(795.0170781893003 82.7074074074074)"/><use xlink:href="#W" transform="matrix(1,0,0,1,864.8629902117619,348.68715998175406) translate(0 116.68518518518519)"/><use xlink:href="#X" transform="matrix(1,0,0,1,864.8629902117619,348.68715998175406) translate(124.97844650205764 116.68518518518519)"/><use xlink:href="#Y" transform="matrix(1,0,0,1,864.8629902117619,348.68715998175406) translate(401.519804526749 116.68518518518519)"/><use xlink:href="#U" transform="matrix(1,0,0,1,864.8629902117619,348.68715998175406) translate(478.4417181069959 116.68518518518519)"/><use xlink:href="#Z" transform="matrix(1,0,0,1,864.8629902117619,348.68715998175406) translate(560.082767489712 116.68518518518519)"/><use xlink:href="#W" transform="matrix(1,0,0,1,864.8629902117619,348.68715998175406) translate(0 150.66296296296298)"/><use xlink:href="#aa" transform="matrix(1,0,0,1,864.8629902117619,348.68715998175406) translate(124.97844650205764 150.66296296296298)"/><use xlink:href="#ab" transform="matrix(1,0,0,1,864.8629902117619,348.68715998175406) translate(338.51934156378604 150.66296296296298)"/><use xlink:href="#W" transform="matrix(1,0,0,1,864.8629902117619,348.68715998175406) translate(0 184.64074074074074)"/><use xlink:href="#ac" transform="matrix(1,0,0,1,864.8629902117619,348.68715998175406) translate(124.97844650205764 184.64074074074074)"/><use xlink:href="#ad" transform="matrix(1,0,0,1,864.8629902117619,348.68715998175406) translate(332.30581275720164 184.64074074074074)"/><use xlink:href="#U" transform="matrix(1,0,0,1,864.8629902117619,348.68715998175406) translate(376.2724279835391 184.64074074074074)"/><use xlink:href="#ae" transform="matrix(1,0,0,1,864.8629902117619,348.68715998175406) translate(457.91347736625517 184.64074074074074)"/><use xlink:href="#af" transform="matrix(1,0,0,1,864.8629902117619,348.68715998175406) translate(0 218.6185185185185)"/></g><path d="M852.36 427.48h-44.08" stroke="#b2b2b2" stroke-width="2" fill="none"/><path d="M852.86 428.48h-.5v-2h.5z" fill="#b2b2b2"/><path d="M807.8 440.2l-21.52-12.72 21.52-12.73z" fill="#fff"/><path d="M808.8 441.96l-24.5-14.48L808.8 413zm-20.56-14.48l18.56 10.97V416.5z" fill="#b2b2b2"/><path d="M1367.3 952.37v-16.54" stroke="#b2b2b2" stroke-width="2" fill="none"/><path d="M1368.3 952.87h-2v-.5h2z" fill="#b2b2b2"/><path d="M1382.14 920.68l-14.85 15.15-14.86-15.15 14.85-14.85z" fill="#fff"/><path d="M1383.55 920.67l-16.26 16.6-16.26-16.6 16.25-16.25zm-29.7.02l13.44 13.7 13.44-13.7-13.45-13.46z" fill="#b2b2b2"/><path d="M1367.3 694.92v-24" stroke="#b2b2b2" stroke-width="2" fill="none"/><path d="M1368.3 695.42h-2v-.5h2z" fill="#b2b2b2"/><path d="M1380.02 670.44h-25.45l12.72-21.52z" fill="#fff"/><path d="M1381.77 671.44h-28.96l14.5-24.48zm-25.45-2h21.95l-10.98-18.55z" fill="#b2b2b2"/><path d="M310.4 703.42c0-4.42 3.58-8 8-8h337.03c4.42 0 8 3.58 8 8v215.66c0 4.42-3.58 8-8 8H318.4c-4.42 0-8-3.58-8-8z" stroke="#666" fill="#fff"/><path d="M310.4 745h353.03M310.4 836h353.03" stroke="#666" fill="none"/><g><use xlink:href="#ag" transform="matrix(1,0,0,1,318.39831599565207,695.4151616603042) translate(95.97137345679012 30.662962962962965)"/><use xlink:href="#ah" transform="matrix(1,0,0,1,318.39831599565207,695.4151616603042) translate(182.3315586419753 30.662962962962965)"/></g><path d="M486.9 646.96v24" stroke="#b2b2b2" stroke-width="2" fill="none"/><path d="M487.9 646.96h-2v-.5h2z" fill="#b2b2b2"/><path d="M486.9 692.95l-12.7-21.52h25.44z" fill="#fff"/><path d="M486.9 694.92l-14.46-24.5h28.95zm-10.96-22.5L486.9 691l11-18.57z" fill="#b2b2b2"/><defs><path fill="#666" d="M125-24c46 0 70-25 89-51l25 16C214-24 183 4 123 4 8 4-5-146 60-208c32-50 158-61 191-5 5 7 9 14 11 22l-32 10c-9-28-33-43-69-43-74 0-108 51-108 125 0 46 24 75 72 75" id="ai"/><path fill="#666" d="M6 0l50-261h32L37 0H6" id="aj"/><path fill="#666" d="M165-48c-4 18 1 34 23 27l-3 20c-29 8-62 0-52-35h-2C116-14 99 4 63 4 30 4 8-16 8-49c0-68 71-67 138-67 10-26 0-56-31-54-26 1-42 9-47 31l-32-5c8-67 160-71 144 15-5 28-9 54-15 81zM42-50c3 52 80 24 89-6 7-12 7-24 11-38-47 1-103-4-100 44" id="ak"/><path fill="#666" d="M55-144c13 50 104 24 104 88C159 21 15 23 1-39l26-10c6 40 102 42 102-4-13-50-104-23-104-87 0-71 143-71 148-8l-29 4c-5-35-85-37-89 0" id="al"/><g id="a"><use transform="matrix(0.0786522633744856,0,0,0.0786522633744856,0,0)" xlink:href="#ai"/><use transform="matrix(0.0786522633744856,0,0,0.0786522633744856,20.37093621399177,0)" xlink:href="#aj"/><use transform="matrix(0.0786522633744856,0,0,0.0786522633744856,26.584465020576133,0)" xlink:href="#ak"/><use transform="matrix(0.0786522633744856,0,0,0.0786522633744856,42.31491769547326,0)" xlink:href="#al"/><use transform="matrix(0.0786522633744856,0,0,0.0786522633744856,56.47232510288066,0)" xlink:href="#al"/></g><path fill="#666" d="M151-220L108 0H75l42-220H32l6-28h203l-5 28h-85" id="am"/><path fill="#666" d="M14 0l48-248h34L48 0H14" id="an"/><path fill="#666" d="M222 0l43-216c-8 16-17 34-26 49L143 0h-22L81-216 41 0H11l48-248h42l38 208 116-208h45L252 0h-30" id="ao"/><path fill="#666" d="M52-101C46-14 166-7 216-51l9-45h-74l6-28h105l-18 87C217-12 181 4 130 4 60 4 18-31 18-101c0-106 78-167 188-146 30 6 48 27 59 54l-34 9c-10-26-31-41-67-40-75 1-107 50-112 123" id="ap"/><path fill="#666" d="M62-99C39-31 123 0 170-40s38-139 58-208h34C234-144 253 4 115 4 49 4 18-43 31-112l26-136h34" id="aq"/><path fill="#666" d="M50-231l6-30h32l-6 30H50zM6 0l37-190h31L37 0H6" id="ar"/><path fill="#666" d="M67-158c22-48 132-52 116 29L158 0h-32l25-140c3-38-53-32-70-12C52-117 51-52 38 0H6l36-190h30" id="as"/><path fill="#666" d="M247 0h-39l-15-214-24 57L95 0H56L31-248h35L82-30l101-218h33l16 218 101-218h35" id="at"/><path fill="#666" d="M133-28C103 26-5 8 13-77c13-62 24-115 90-117 29-1 46 15 56 35l19-102h32L160 0h-30zM45-64c-2 27 10 43 35 43 54-1 69-50 69-103 0-29-15-46-42-46-53-1-58 58-62 106" id="au"/><path fill="#666" d="M30-147c31-64 166-65 159 27C183-49 158 1 86 4 9 8 1-88 30-147zM88-20c53 0 68-48 68-100 0-31-11-51-44-50-52 1-68 46-68 97 0 32 13 53 44 53" id="av"/><path fill="#666" d="M188 0h-37l-8-164L71 0H34L18-190h31l8 164 75-164h34l8 164 74-164h31" id="aw"/><g id="b"><use transform="matrix(0.0786522633744856,0,0,0.0786522633744856,0,0)" xlink:href="#am"/><use transform="matrix(0.0786522633744856,0,0,0.0786522633744856,17.224845679012347,0)" xlink:href="#an"/><use transform="matrix(0.0786522633744856,0,0,0.0786522633744856,25.09007201646091,0)" xlink:href="#ao"/><use transform="matrix(0.0786522633744856,0,0,0.0786522633744856,48.6070987654321,0)" xlink:href="#ap"/><use transform="matrix(0.0786522633744856,0,0,0.0786522633744856,70.62973251028806,0)" xlink:href="#aq"/><use transform="matrix(0.0786522633744856,0,0,0.0786522633744856,91.00066872427983,0)" xlink:href="#an"/><use transform="matrix(0.0786522633744856,0,0,0.0786522633744856,98.8658950617284,0)" xlink:href="#ao"/><use transform="matrix(0.0786522633744856,0,0,0.0786522633744856,122.38292181069959,0)" xlink:href="#ak"/><use transform="matrix(0.0786522633744856,0,0,0.0786522633744856,138.1133744855967,0)" xlink:href="#ar"/><use transform="matrix(0.0786522633744856,0,0,0.0786522633744856,144.32690329218104,0)" xlink:href="#as"/><use transform="matrix(0.0786522633744856,0,0,0.0786522633744856,160.05735596707817,0)" xlink:href="#at"/><use transform="matrix(0.0786522633744856,0,0,0.0786522633744856,186.4845164609053,0)" xlink:href="#ar"/><use transform="matrix(0.0786522633744856,0,0,0.0786522633744856,192.69804526748968,0)" xlink:href="#as"/><use transform="matrix(0.0786522633744856,0,0,0.0786522633744856,208.4284979423868,0)" xlink:href="#au"/><use transform="matrix(0.0786522633744856,0,0,0.0786522633744856,224.15895061728392,0)" xlink:href="#av"/><use transform="matrix(0.0786522633744856,0,0,0.0786522633744856,239.88940329218104,0)" xlink:href="#aw"/></g><path fill="#666" d="M18-82l6-28h88l-6 28H18" id="ax"/><path fill="#666" d="M29-66c0 49 71 55 82 11 13-52 22-111 33-165H93l5-28h85L149-74C151 11 7 37-1-60" id="ay"/><path fill="#666" d="M111-194c62-3 86 47 72 106H45c-7 38 6 69 45 68 27-1 43-14 53-32l24 11C152-15 129 4 87 4 38 3 12-23 12-71c0-70 32-119 99-123zm44 81c14-66-71-72-95-28-4 8-8 17-11 28h106" id="az"/><path fill="#666" d="M124 0L87-78 21 0h-35l86-98-46-92h33l34 74 61-74h37l-83 92 50 98h-34" id="aA"/><path fill="#666" d="M51-54c-9 22 5 41 31 30L79-1C43 14 10-4 19-52l22-115H19l5-23h22l19-43h21l-9 43h35l-4 23H73" id="aB"/><path fill="#666" d="M87-220l-18 92h140l-5 28H64L45 0H11l48-248h178l-5 28H87" id="aC"/><g id="c"><use transform="matrix(0.0786522633744856,0,0,0.0786522633744856,0,0)" xlink:href="#ax"/><use transform="matrix(0.0786522633744856,0,0,0.0786522633744856,9.359619341563786,0)" xlink:href="#ay"/><use transform="matrix(0.0786522633744856,0,0,0.0786522633744856,23.517026748971187,0)" xlink:href="#am"/><use transform="matrix(0.0786522633744856,0,0,0.0786522633744856,38.146347736625515,0)" xlink:href="#az"/><use transform="matrix(0.0786522633744856,0,0,0.0786522633744856,53.876800411522645,0)" xlink:href="#aA"/><use transform="matrix(0.0786522633744856,0,0,0.0786522633744856,68.03420781893004,0)" xlink:href="#aB"/><use transform="matrix(0.0786522633744856,0,0,0.0786522633744856,75.8994341563786,0)" xlink:href="#aC"/><use transform="matrix(0.0786522633744856,0,0,0.0786522633744856,93.12427983539095,0)" xlink:href="#ar"/><use transform="matrix(0.0786522633744856,0,0,0.0786522633744856,99.3378086419753,0)" xlink:href="#az"/><use transform="matrix(0.0786522633744856,0,0,0.0786522633744856,115.06826131687244,0)" xlink:href="#aj"/><use transform="matrix(0.0786522633744856,0,0,0.0786522633744856,121.2817901234568,0)" xlink:href="#au"/></g><path fill="#666" d="M194-120c59 52 2 134-86 124-53-6-90-18-98-63l31-7c8 30 29 43 70 43 46 0 84-17 71-62-32-43-135-20-137-98-3-89 178-90 191-16l-30 9c-8-48-127-53-127 5 0 53 81 35 115 65" id="aD"/><path fill="#666" d="M198-190L69 30C53 58 25 83-20 72c4-11-1-27 19-22 33-1 43-29 59-52L20-190h32L79-34l84-156h35" id="aE"/><g id="d"><use transform="matrix(0.0786522633744856,0,0,0.0786522633744856,0,0)" xlink:href="#aD"/><use transform="matrix(0.0786522633744856,0,0,0.0786522633744856,18.876543209876544,0)" xlink:href="#ai"/><use transform="matrix(0.0786522633744856,0,0,0.0786522633744856,39.24747942386831,0)" xlink:href="#ar"/><use transform="matrix(0.0786522633744856,0,0,0.0786522633744856,45.46100823045268,0)" xlink:href="#aB"/><use transform="matrix(0.0786522633744856,0,0,0.0786522633744856,53.326234567901245,0)" xlink:href="#aE"/></g><g id="e"><use transform="matrix(0.0786522633744856,0,0,0.0786522633744856,0,0)" xlink:href="#am"/><use transform="matrix(0.0786522633744856,0,0,0.0786522633744856,17.224845679012347,0)" xlink:href="#ai"/><use transform="matrix(0.0786522633744856,0,0,0.0786522633744856,37.595781893004116,0)" xlink:href="#ar"/><use transform="matrix(0.0786522633744856,0,0,0.0786522633744856,43.80931069958848,0)" xlink:href="#aB"/><use transform="matrix(0.0786522633744856,0,0,0.0786522633744856,51.67453703703705,0)" xlink:href="#aE"/></g><g id="f"><use transform="matrix(0.0786522633744856,0,0,0.0786522633744856,0,0)" xlink:href="#ax"/><use transform="matrix(0.0786522633744856,0,0,0.0786522633744856,9.359619341563786,0)" xlink:href="#ay"/><use transform="matrix(0.0786522633744856,0,0,0.0786522633744856,23.517026748971187,0)" xlink:href="#am"/><use transform="matrix(0.0786522633744856,0,0,0.0786522633744856,38.146347736625515,0)" xlink:href="#az"/><use transform="matrix(0.0786522633744856,0,0,0.0786522633744856,53.876800411522645,0)" xlink:href="#aA"/><use transform="matrix(0.0786522633744856,0,0,0.0786522633744856,68.03420781893004,0)" xlink:href="#aB"/><use transform="matrix(0.0786522633744856,0,0,0.0786522633744856,75.8994341563786,0)" xlink:href="#aC"/><use transform="matrix(0.0786522633744856,0,0,0.0786522633744856,93.12427983539095,0)" xlink:href="#ar"/><use transform="matrix(0.0786522633744856,0,0,0.0786522633744856,99.3378086419753,0)" xlink:href="#az"/><use transform="matrix(0.0786522633744856,0,0,0.0786522633744856,115.06826131687244,0)" xlink:href="#aj"/><use transform="matrix(0.0786522633744856,0,0,0.0786522633744856,121.2817901234568,0)" xlink:href="#au"/></g><path fill="#666" d="M248-139C247-14 144 9 11 0l48-248c105-6 190 8 189 109zm-34 0c1-70-52-87-126-82L50-27c98 7 163-21 164-112" id="aF"/><g id="g"><use transform="matrix(0.0786522633744856,0,0,0.0786522633744856,0,0)" xlink:href="#aF"/><use transform="matrix(0.0786522633744856,0,0,0.0786522633744856,20.37093621399177,0)" xlink:href="#ak"/><use transform="matrix(0.0786522633744856,0,0,0.0786522633744856,36.10138888888889,0)" xlink:href="#aB"/><use transform="matrix(0.0786522633744856,0,0,0.0786522633744856,43.96661522633746,0)" xlink:href="#az"/></g><path fill="#666" d="M238-179c0 84-86 86-175 82L45 0H11l48-248c82 0 179-12 179 69zm-34 1c0-53-64-42-116-43l-19 98c63 0 135 9 135-55" id="aG"/><g id="h"><use transform="matrix(0.0786522633744856,0,0,0.0786522633744856,0,0)" xlink:href="#ax"/><use transform="matrix(0.0786522633744856,0,0,0.0786522633744856,9.359619341563786,0)" xlink:href="#ay"/><use transform="matrix(0.0786522633744856,0,0,0.0786522633744856,23.517026748971187,0)" xlink:href="#aG"/><use transform="matrix(0.0786522633744856,0,0,0.0786522633744856,42.393569958847735,0)" xlink:href="#ak"/><use transform="matrix(0.0786522633744856,0,0,0.0786522633744856,58.12402263374486,0)" xlink:href="#as"/><use transform="matrix(0.0786522633744856,0,0,0.0786522633744856,73.85447530864198,0)" xlink:href="#az"/><use transform="matrix(0.0786522633744856,0,0,0.0786522633744856,89.58492798353912,0)" xlink:href="#aj"/></g><path fill="#666" d="M11 0l48-248h34L50-27h125l-5 27H11" id="aH"/><g id="i"><use transform="matrix(0.0786522633744856,0,0,0.0786522633744856,0,0)" xlink:href="#aH"/><use transform="matrix(0.0786522633744856,0,0,0.0786522633744856,15.73045267489712,0)" xlink:href="#ar"/><use transform="matrix(0.0786522633744856,0,0,0.0786522633744856,21.94398148148148,0)" xlink:href="#al"/><use transform="matrix(0.0786522633744856,0,0,0.0786522633744856,36.101388888888884,0)" xlink:href="#aB"/><use transform="matrix(0.0786522633744856,0,0,0.0786522633744856,43.966615226337446,0)" xlink:href="#aG"/><use transform="matrix(0.0786522633744856,0,0,0.0786522633744856,62.84315843621399,0)" xlink:href="#ak"/><use transform="matrix(0.0786522633744856,0,0,0.0786522633744856,78.5736111111111,0)" xlink:href="#au"/></g><path fill="#666" d="M123-107v75H97v-75H23v-26h74v-75h26v75h75v26h-75" id="aI"/><g id="j"><use transform="matrix(0.0786522633744856,0,0,0.0786522633744856,0,0)" xlink:href="#aI"/><use transform="matrix(0.0786522633744856,0,0,0.0786522633744856,16.516975308641975,0)" xlink:href="#am"/><use transform="matrix(0.0786522633744856,0,0,0.0786522633744856,33.74182098765432,0)" xlink:href="#an"/><use transform="matrix(0.0786522633744856,0,0,0.0786522633744856,41.60704732510288,0)" xlink:href="#ao"/><use transform="matrix(0.0786522633744856,0,0,0.0786522633744856,65.12407407407407,0)" xlink:href="#ap"/><use transform="matrix(0.0786522633744856,0,0,0.0786522633744856,87.14670781893004,0)" xlink:href="#aq"/><use transform="matrix(0.0786522633744856,0,0,0.0786522633744856,107.51764403292181,0)" xlink:href="#an"/><use transform="matrix(0.0786522633744856,0,0,0.0786522633744856,115.38287037037037,0)" xlink:href="#ao"/><use transform="matrix(0.0786522633744856,0,0,0.0786522633744856,138.89989711934157,0)" xlink:href="#ak"/><use transform="matrix(0.0786522633744856,0,0,0.0786522633744856,154.6303497942387,0)" xlink:href="#ar"/><use transform="matrix(0.0786522633744856,0,0,0.0786522633744856,160.84387860082305,0)" xlink:href="#as"/><use transform="matrix(0.0786522633744856,0,0,0.0786522633744856,176.57433127572017,0)" xlink:href="#at"/><use transform="matrix(0.0786522633744856,0,0,0.0786522633744856,203.00149176954733,0)" xlink:href="#ar"/><use transform="matrix(0.0786522633744856,0,0,0.0786522633744856,209.21502057613168,0)" xlink:href="#as"/><use transform="matrix(0.0786522633744856,0,0,0.0786522633744856,224.9454732510288,0)" xlink:href="#au"/><use transform="matrix(0.0786522633744856,0,0,0.0786522633744856,240.67592592592592,0)" xlink:href="#av"/><use transform="matrix(0.0786522633744856,0,0,0.0786522633744856,256.406378600823,0)" xlink:href="#aw"/></g><path fill="#666" d="M17-49c1-102 45-165 103-212h30C92-210 49-145 49-46 49 4 63 43 85 75H54C30 43 18 2 17-49" id="aJ"/><path fill="#666" d="M98-137C97-35 54 29-4 75h-31C23 23 67-41 67-140c0-50-15-89-37-121h31c24 32 36 73 37 124" id="aK"/><g id="k"><use transform="matrix(0.0786522633744856,0,0,0.0786522633744856,0,0)" xlink:href="#am"/><use transform="matrix(0.0786522633744856,0,0,0.0786522633744856,17.224845679012347,0)" xlink:href="#an"/><use transform="matrix(0.0786522633744856,0,0,0.0786522633744856,25.09007201646091,0)" xlink:href="#ao"/><use transform="matrix(0.0786522633744856,0,0,0.0786522633744856,48.6070987654321,0)" xlink:href="#ap"/><use transform="matrix(0.0786522633744856,0,0,0.0786522633744856,70.62973251028806,0)" xlink:href="#aq"/><use transform="matrix(0.0786522633744856,0,0,0.0786522633744856,91.00066872427983,0)" xlink:href="#an"/><use transform="matrix(0.0786522633744856,0,0,0.0786522633744856,98.8658950617284,0)" xlink:href="#ao"/><use transform="matrix(0.0786522633744856,0,0,0.0786522633744856,122.38292181069959,0)" xlink:href="#ak"/><use transform="matrix(0.0786522633744856,0,0,0.0786522633744856,138.1133744855967,0)" xlink:href="#ar"/><use transform="matrix(0.0786522633744856,0,0,0.0786522633744856,144.32690329218104,0)" xlink:href="#as"/><use transform="matrix(0.0786522633744856,0,0,0.0786522633744856,160.05735596707817,0)" xlink:href="#at"/><use transform="matrix(0.0786522633744856,0,0,0.0786522633744856,186.4845164609053,0)" xlink:href="#ar"/><use transform="matrix(0.0786522633744856,0,0,0.0786522633744856,192.69804526748968,0)" xlink:href="#as"/><use transform="matrix(0.0786522633744856,0,0,0.0786522633744856,208.4284979423868,0)" xlink:href="#au"/><use transform="matrix(0.0786522633744856,0,0,0.0786522633744856,224.15895061728392,0)" xlink:href="#av"/><use transform="matrix(0.0786522633744856,0,0,0.0786522633744856,239.88940329218104,0)" xlink:href="#aw"/><use transform="matrix(0.0786522633744856,0,0,0.0786522633744856,260.26033950617284,0)" xlink:href="#aJ"/><use transform="matrix(0.0786522633744856,0,0,0.0786522633744856,269.6199588477366,0)" xlink:href="#aK"/></g><g id="l"><use transform="matrix(0.0786522633744856,0,0,0.0786522633744856,0,0)" xlink:href="#ai"/><use transform="matrix(0.0786522633744856,0,0,0.0786522633744856,20.37093621399177,0)" xlink:href="#aj"/><use transform="matrix(0.0786522633744856,0,0,0.0786522633744856,26.584465020576133,0)" xlink:href="#ak"/><use transform="matrix(0.0786522633744856,0,0,0.0786522633744856,42.31491769547326,0)" xlink:href="#al"/><use transform="matrix(0.0786522633744856,0,0,0.0786522633744856,56.47232510288066,0)" xlink:href="#al"/></g><path fill="#666" d="M44-68c0 29 11 47 38 47 30 0 42-19 51-41l28 9C148-21 126 4 82 4 31 4 10-29 12-85c3-77 74-140 146-93 12 8 15 23 18 40l-31 5c-1-22-13-36-36-36-52 0-65 49-65 101" id="aL"/><path fill="#666" d="M127 0L80-88 50-66 37 0H6l51-261h31L57-100l99-90h39l-93 82L161 0h-34" id="aM"/><g id="m"><use transform="matrix(0.0786522633744856,0,0,0.0786522633744856,0,0)" xlink:href="#am"/><use transform="matrix(0.0786522633744856,0,0,0.0786522633744856,16.98888888888889,0)" xlink:href="#ar"/><use transform="matrix(0.0786522633744856,0,0,0.0786522633744856,23.20241769547325,0)" xlink:href="#aL"/><use transform="matrix(0.0786522633744856,0,0,0.0786522633744856,37.359825102880656,0)" xlink:href="#aM"/><use transform="matrix(0.0786522633744856,0,0,0.0786522633744856,51.51723251028807,0)" xlink:href="#az"/><use transform="matrix(0.0786522633744856,0,0,0.0786522633744856,67.24768518518518,0)" xlink:href="#aB"/><use transform="matrix(0.0786522633744856,0,0,0.0786522633744856,75.11291152263374,0)" xlink:href="#ai"/><use transform="matrix(0.0786522633744856,0,0,0.0786522633744856,95.4838477366255,0)" xlink:href="#av"/><use transform="matrix(0.0786522633744856,0,0,0.0786522633744856,111.21430041152263,0)" xlink:href="#aj"/><use transform="matrix(0.0786522633744856,0,0,0.0786522633744856,117.427829218107,0)" xlink:href="#aj"/><use transform="matrix(0.0786522633744856,0,0,0.0786522633744856,123.64135802469136,0)" xlink:href="#az"/><use transform="matrix(0.0786522633744856,0,0,0.0786522633744856,139.37181069958848,0)" xlink:href="#aL"/><use transform="matrix(0.0786522633744856,0,0,0.0786522633744856,153.5292181069959,0)" xlink:href="#aB"/><use transform="matrix(0.0786522633744856,0,0,0.0786522633744856,161.39444444444445,0)" xlink:href="#ar"/><use transform="matrix(0.0786522633744856,0,0,0.0786522633744856,167.6079732510288,0)" xlink:href="#av"/><use transform="matrix(0.0786522633744856,0,0,0.0786522633744856,183.33842592592592,0)" xlink:href="#as"/></g><path fill="#666" d="M76-167L44 0H12l33-167H18l4-23h27c3-47 25-81 82-69l-4 24c-35-8-44 15-46 45h37l-5 23H76" id="aN"/><g id="n"><use transform="matrix(0.0786522633744856,0,0,0.0786522633744856,0,0)" xlink:href="#am"/><use transform="matrix(0.0786522633744856,0,0,0.0786522633744856,16.98888888888889,0)" xlink:href="#ar"/><use transform="matrix(0.0786522633744856,0,0,0.0786522633744856,23.20241769547325,0)" xlink:href="#aL"/><use transform="matrix(0.0786522633744856,0,0,0.0786522633744856,37.359825102880656,0)" xlink:href="#aM"/><use transform="matrix(0.0786522633744856,0,0,0.0786522633744856,51.51723251028807,0)" xlink:href="#az"/><use transform="matrix(0.0786522633744856,0,0,0.0786522633744856,67.24768518518518,0)" xlink:href="#aB"/><use transform="matrix(0.0786522633744856,0,0,0.0786522633744856,75.11291152263374,0)" xlink:href="#an"/><use transform="matrix(0.0786522633744856,0,0,0.0786522633744856,82.9781378600823,0)" xlink:href="#as"/><use transform="matrix(0.0786522633744856,0,0,0.0786522633744856,98.70859053497942,0)" xlink:href="#aN"/><use transform="matrix(0.0786522633744856,0,0,0.0786522633744856,106.57381687242798,0)" xlink:href="#av"/></g><path fill="#666" d="M66-151c12-25 30-51 66-40l-6 26C45-176 58-65 38 0H6l36-190h30" id="aO"/><path fill="#666" d="M103-194c29 0 47 14 56 36 2-11 5-23 8-32h30L160-5C157 61 82 97 21 62 9 55 4 45 1 30l28-7c7 42 83 31 92-3 4-16 9-38 13-55-13 20-29 36-62 36-40 0-60-25-60-64 0-71 23-131 91-131zm4 24c-53 0-58 54-61 104-2 27 10 44 36 44 49 0 65-50 67-102 1-29-15-46-42-46" id="aP"/><g id="o"><use transform="matrix(0.0786522633744856,0,0,0.0786522633744856,0,0)" xlink:href="#ax"/><use transform="matrix(0.0786522633744856,0,0,0.0786522633744856,9.359619341563786,0)" xlink:href="#aD"/><use transform="matrix(0.0786522633744856,0,0,0.0786522633744856,28.23616255144033,0)" xlink:href="#aB"/><use transform="matrix(0.0786522633744856,0,0,0.0786522633744856,36.10138888888889,0)" xlink:href="#aO"/><use transform="matrix(0.0786522633744856,0,0,0.0786522633744856,45.46100823045268,0)" xlink:href="#ar"/><use transform="matrix(0.0786522633744856,0,0,0.0786522633744856,51.67453703703705,0)" xlink:href="#as"/><use transform="matrix(0.0786522633744856,0,0,0.0786522633744856,67.40498971193416,0)" xlink:href="#aP"/></g><g id="p"><use transform="matrix(0.0786522633744856,0,0,0.0786522633744856,0,0)" xlink:href="#an"/><use transform="matrix(0.0786522633744856,0,0,0.0786522633744856,7.86522633744856,0)" xlink:href="#aF"/></g><g id="q"><use transform="matrix(0.0786522633744856,0,0,0.0786522633744856,0,0)" xlink:href="#ax"/><use transform="matrix(0.0786522633744856,0,0,0.0786522633744856,9.359619341563786,0)" xlink:href="#aF"/><use transform="matrix(0.0786522633744856,0,0,0.0786522633744856,29.730555555555554,0)" xlink:href="#ak"/><use transform="matrix(0.0786522633744856,0,0,0.0786522633744856,45.46100823045268,0)" xlink:href="#aB"/><use transform="matrix(0.0786522633744856,0,0,0.0786522633744856,53.326234567901245,0)" xlink:href="#az"/></g><g id="r"><use transform="matrix(0.0786522633744856,0,0,0.0786522633744856,0,0)" xlink:href="#au"/><use transform="matrix(0.0786522633744856,0,0,0.0786522633744856,15.73045267489712,0)" xlink:href="#ak"/><use transform="matrix(0.0786522633744856,0,0,0.0786522633744856,31.46090534979424,0)" xlink:href="#aB"/><use transform="matrix(0.0786522633744856,0,0,0.0786522633744856,39.3261316872428,0)" xlink:href="#az"/></g><g id="s"><use transform="matrix(0.0786522633744856,0,0,0.0786522633744856,0,0)" xlink:href="#ax"/><use transform="matrix(0.0786522633744856,0,0,0.0786522633744856,9.359619341563786,0)" xlink:href="#ar"/><use transform="matrix(0.0786522633744856,0,0,0.0786522633744856,15.573148148148148,0)" xlink:href="#as"/><use transform="matrix(0.0786522633744856,0,0,0.0786522633744856,31.30360082304527,0)" xlink:href="#aB"/></g><path fill="#666" d="M67 3c-93-2-31-127-26-193h32L48-50c-3 39 53 32 70 12 30-34 30-101 43-152h32L157 0h-30c1-10 6-24 4-33-14 20-29 37-64 36" id="aQ"/><path fill="#666" d="M248-111c6-24 9-61-24-58-72 9-57 108-77 169h-31l26-142c3-37-50-30-64-10C52-115 50-51 37 0H6l36-190h30c-1 10-6 24-4 32 13-43 101-52 105 5 13-22 29-41 61-41 90 0 28 129 23 194h-31" id="aR"/><g id="t"><use transform="matrix(0.0786522633744856,0,0,0.0786522633744856,0,0)" xlink:href="#as"/><use transform="matrix(0.0786522633744856,0,0,0.0786522633744856,15.73045267489712,0)" xlink:href="#aQ"/><use transform="matrix(0.0786522633744856,0,0,0.0786522633744856,31.46090534979424,0)" xlink:href="#aR"/></g><g id="u"><use transform="matrix(0.0786522633744856,0,0,0.0786522633744856,0,0)" xlink:href="#aI"/><use transform="matrix(0.0786522633744856,0,0,0.0786522633744856,16.516975308641975,0)" xlink:href="#aN"/><use transform="matrix(0.0786522633744856,0,0,0.0786522633744856,24.382201646090536,0)" xlink:href="#aj"/><use transform="matrix(0.0786522633744856,0,0,0.0786522633744856,30.5957304526749,0)" xlink:href="#av"/><use transform="matrix(0.0786522633744856,0,0,0.0786522633744856,46.32618312757202,0)" xlink:href="#ak"/><use transform="matrix(0.0786522633744856,0,0,0.0786522633744856,62.056635802469145,0)" xlink:href="#aB"/></g><path fill="#666" d="M67-162c32-53 139-36 121 50C175-51 163 2 97 4 68 4 52-11 42-31 38 6 28 39 22 75H-9l50-265h29c-1 10 0 20-3 28zm89 36c0-26-10-43-35-43-54 0-67 50-69 103-1 29 14 45 42 46 53 0 62-58 62-106" id="aS"/><g id="v"><use transform="matrix(0.0786522633744856,0,0,0.0786522633744856,0,0)" xlink:href="#aS"/><use transform="matrix(0.0786522633744856,0,0,0.0786522633744856,15.73045267489712,0)" xlink:href="#aO"/><use transform="matrix(0.0786522633744856,0,0,0.0786522633744856,25.090072016460905,0)" xlink:href="#ar"/><use transform="matrix(0.0786522633744856,0,0,0.0786522633744856,31.30360082304527,0)" xlink:href="#aL"/><use transform="matrix(0.0786522633744856,0,0,0.0786522633744856,45.46100823045268,0)" xlink:href="#az"/></g><g id="x"><use transform="matrix(0.0786522633744856,0,0,0.0786522633744856,0,0)" xlink:href="#aI"/><use transform="matrix(0.0786522633744856,0,0,0.0786522633744856,16.516975308641975,0)" xlink:href="#aD"/><use transform="matrix(0.0786522633744856,0,0,0.0786522633744856,35.39351851851852,0)" xlink:href="#aB"/><use transform="matrix(0.0786522633744856,0,0,0.0786522633744856,43.25874485596708,0)" xlink:href="#aO"/><use transform="matrix(0.0786522633744856,0,0,0.0786522633744856,52.618364197530866,0)" xlink:href="#ar"/><use transform="matrix(0.0786522633744856,0,0,0.0786522633744856,58.83189300411524,0)" xlink:href="#as"/><use transform="matrix(0.0786522633744856,0,0,0.0786522633744856,74.56234567901235,0)" xlink:href="#aP"/></g><g id="y"><use transform="matrix(0.0786522633744856,0,0,0.0786522633744856,0,0)" xlink:href="#aP"/><use transform="matrix(0.0786522633744856,0,0,0.0786522633744856,15.73045267489712,0)" xlink:href="#az"/><use transform="matrix(0.0786522633744856,0,0,0.0786522633744856,31.46090534979424,0)" xlink:href="#aB"/><use transform="matrix(0.0786522633744856,0,0,0.0786522633744856,39.3261316872428,0)" xlink:href="#an"/><use transform="matrix(0.0786522633744856,0,0,0.0786522633744856,47.191358024691354,0)" xlink:href="#aF"/><use transform="matrix(0.0786522633744856,0,0,0.0786522633744856,67.56229423868314,0)" xlink:href="#aJ"/><use transform="matrix(0.0786522633744856,0,0,0.0786522633744856,76.92191358024692,0)" xlink:href="#aK"/></g><g id="z"><use transform="matrix(0.0786522633744856,0,0,0.0786522633744856,0,0)" xlink:href="#aP"/><use transform="matrix(0.0786522633744856,0,0,0.0786522633744856,15.73045267489712,0)" xlink:href="#az"/><use transform="matrix(0.0786522633744856,0,0,0.0786522633744856,31.46090534979424,0)" xlink:href="#aB"/><use transform="matrix(0.0786522633744856,0,0,0.0786522633744856,39.3261316872428,0)" xlink:href="#aD"/><use transform="matrix(0.0786522633744856,0,0,0.0786522633744856,58.20267489711934,0)" xlink:href="#ai"/><use transform="matrix(0.0786522633744856,0,0,0.0786522633744856,78.57361111111112,0)" xlink:href="#ar"/><use transform="matrix(0.0786522633744856,0,0,0.0786522633744856,84.78713991769548,0)" xlink:href="#aB"/><use transform="matrix(0.0786522633744856,0,0,0.0786522633744856,92.65236625514405,0)" xlink:href="#aE"/><use transform="matrix(0.0786522633744856,0,0,0.0786522633744856,106.80977366255145,0)" xlink:href="#aJ"/><use transform="matrix(0.0786522633744856,0,0,0.0786522633744856,116.16939300411524,0)" xlink:href="#aK"/></g><g id="A"><use transform="matrix(0.0786522633744856,0,0,0.0786522633744856,0,0)" xlink:href="#aP"/><use transform="matrix(0.0786522633744856,0,0,0.0786522633744856,15.73045267489712,0)" xlink:href="#az"/><use transform="matrix(0.0786522633744856,0,0,0.0786522633744856,31.46090534979424,0)" xlink:href="#aB"/><use transform="matrix(0.0786522633744856,0,0,0.0786522633744856,39.3261316872428,0)" xlink:href="#am"/><use transform="matrix(0.0786522633744856,0,0,0.0786522633744856,56.55097736625514,0)" xlink:href="#ai"/><use transform="matrix(0.0786522633744856,0,0,0.0786522633744856,76.92191358024692,0)" xlink:href="#ar"/><use transform="matrix(0.0786522633744856,0,0,0.0786522633744856,83.13544238683129,0)" xlink:href="#aB"/><use transform="matrix(0.0786522633744856,0,0,0.0786522633744856,91.00066872427985,0)" xlink:href="#aE"/><use transform="matrix(0.0786522633744856,0,0,0.0786522633744856,105.15807613168725,0)" xlink:href="#aJ"/><use transform="matrix(0.0786522633744856,0,0,0.0786522633744856,114.51769547325104,0)" xlink:href="#aK"/></g><g id="B"><use transform="matrix(0.0786522633744856,0,0,0.0786522633744856,0,0)" xlink:href="#aI"/><use transform="matrix(0.0786522633744856,0,0,0.0786522633744856,16.516975308641975,0)" xlink:href="#aD"/><use transform="matrix(0.0786522633744856,0,0,0.0786522633744856,35.39351851851852,0)" xlink:href="#aB"/><use transform="matrix(0.0786522633744856,0,0,0.0786522633744856,43.25874485596708,0)" xlink:href="#aO"/><use transform="matrix(0.0786522633744856,0,0,0.0786522633744856,52.618364197530866,0)" xlink:href="#ar"/><use transform="matrix(0.0786522633744856,0,0,0.0786522633744856,58.83189300411524,0)" xlink:href="#as"/><use transform="matrix(0.0786522633744856,0,0,0.0786522633744856,74.56234567901235,0)" xlink:href="#aP"/></g><g id="C"><use transform="matrix(0.0786522633744856,0,0,0.0786522633744856,0,0)" xlink:href="#aP"/><use transform="matrix(0.0786522633744856,0,0,0.0786522633744856,15.73045267489712,0)" xlink:href="#az"/><use transform="matrix(0.0786522633744856,0,0,0.0786522633744856,31.46090534979424,0)" xlink:href="#aB"/><use transform="matrix(0.0786522633744856,0,0,0.0786522633744856,39.3261316872428,0)" xlink:href="#aF"/><use transform="matrix(0.0786522633744856,0,0,0.0786522633744856,59.69706790123457,0)" xlink:href="#ak"/><use transform="matrix(0.0786522633744856,0,0,0.0786522633744856,75.42752057613168,0)" xlink:href="#aB"/><use transform="matrix(0.0786522633744856,0,0,0.0786522633744856,83.29274691358025,0)" xlink:href="#az"/><use transform="matrix(0.0786522633744856,0,0,0.0786522633744856,99.02319958847737,0)" xlink:href="#aJ"/><use transform="matrix(0.0786522633744856,0,0,0.0786522633744856,108.38281893004115,0)" xlink:href="#aK"/></g><path fill="#666" d="M173 0L80-213 41 0H11l48-248h37l94 214 40-214h30L212 0h-39" id="aT"/><g id="D"><use transform="matrix(0.0786522633744856,0,0,0.0786522633744856,0,0)" xlink:href="#aP"/><use transform="matrix(0.0786522633744856,0,0,0.0786522633744856,15.73045267489712,0)" xlink:href="#az"/><use transform="matrix(0.0786522633744856,0,0,0.0786522633744856,31.46090534979424,0)" xlink:href="#aB"/><use transform="matrix(0.0786522633744856,0,0,0.0786522633744856,39.3261316872428,0)" xlink:href="#aT"/><use transform="matrix(0.0786522633744856,0,0,0.0786522633744856,59.69706790123457,0)" xlink:href="#aQ"/><use transform="matrix(0.0786522633744856,0,0,0.0786522633744856,75.42752057613168,0)" xlink:href="#aR"/><use transform="matrix(0.0786522633744856,0,0,0.0786522633744856,98.94454732510287,0)" xlink:href="#aJ"/><use transform="matrix(0.0786522633744856,0,0,0.0786522633744856,108.30416666666666,0)" xlink:href="#aK"/></g><g id="E"><use transform="matrix(0.0786522633744856,0,0,0.0786522633744856,0,0)" xlink:href="#aP"/><use transform="matrix(0.0786522633744856,0,0,0.0786522633744856,15.73045267489712,0)" xlink:href="#az"/><use transform="matrix(0.0786522633744856,0,0,0.0786522633744856,31.46090534979424,0)" xlink:href="#aB"/><use transform="matrix(0.0786522633744856,0,0,0.0786522633744856,39.3261316872428,0)" xlink:href="#aG"/><use transform="matrix(0.0786522633744856,0,0,0.0786522633744856,58.20267489711934,0)" xlink:href="#aO"/><use transform="matrix(0.0786522633744856,0,0,0.0786522633744856,67.56229423868314,0)" xlink:href="#ar"/><use transform="matrix(0.0786522633744856,0,0,0.0786522633744856,73.7758230452675,0)" xlink:href="#aL"/><use transform="matrix(0.0786522633744856,0,0,0.0786522633744856,87.93323045267492,0)" xlink:href="#az"/><use transform="matrix(0.0786522633744856,0,0,0.0786522633744856,103.66368312757203,0)" xlink:href="#aJ"/><use transform="matrix(0.0786522633744856,0,0,0.0786522633744856,113.02330246913581,0)" xlink:href="#aK"/></g><path fill="#b2b2b2" d="M136-208V0H84v-208H4v-40h212v40h-80" id="aU"/><path fill="#b2b2b2" d="M24 0v-248h52V0H24" id="aV"/><path fill="#b2b2b2" d="M230 0l2-204L168 0h-37L68-204 70 0H24v-248h70l56 185 57-185h69V0h-46" id="aW"/><g id="F"><use transform="matrix(0.0786522633744856,0,0,0.0786522633744856,0,0)" xlink:href="#aU"/><use transform="matrix(0.0786522633744856,0,0,0.0786522633744856,17.224845679012347,0)" xlink:href="#aV"/><use transform="matrix(0.0786522633744856,0,0,0.0786522633744856,25.09007201646091,0)" xlink:href="#aW"/></g><path fill="#b2b2b2" d="M137-103V0h-34v-103L8-248h37l75 118 75-118h37" id="aX"/><path fill="#b2b2b2" d="M141-36C126-15 110 5 73 4 37 3 15-17 15-53c-1-64 63-63 125-63 3-35-9-54-41-54-24 1-41 7-42 31l-33-3c5-37 33-52 76-52 45 0 72 20 72 64v82c-1 20 7 32 28 27v20c-31 9-61-2-59-35zM48-53c0 20 12 33 32 33 41-3 63-29 60-74-43 2-92-5-92 41" id="aY"/><path fill="#b2b2b2" d="M59-47c-2 24 18 29 38 22v24C64 9 27 4 27-40v-127H5v-23h24l9-43h21v43h35v23H59v120" id="aZ"/><path fill="#b2b2b2" d="M16-82v-28h88v28H16" id="ba"/><path fill="#b2b2b2" d="M185-189c-5-48-123-54-124 2 14 75 158 14 163 119 3 78-121 87-175 55-17-10-28-26-33-46l33-7c5 56 141 63 141-1 0-78-155-14-162-118-5-82 145-84 179-34 5 7 8 16 11 25" id="bb"/><path fill="#b2b2b2" d="M117-194c89-4 53 116 60 194h-32v-121c0-31-8-49-39-48C34-167 62-67 57 0H25l-1-190h30c1 10-1 24 2 32 11-22 29-35 61-36" id="bc"/><g id="G"><use transform="matrix(0.0786522633744856,0,0,0.0786522633744856,0,0)" xlink:href="#aX"/><use transform="matrix(0.0786522633744856,0,0,0.0786522633744856,16.752932098765434,0)" xlink:href="#aY"/><use transform="matrix(0.0786522633744856,0,0,0.0786522633744856,32.48338477366255,0)" xlink:href="#aZ"/><use transform="matrix(0.0786522633744856,0,0,0.0786522633744856,40.34861111111111,0)" xlink:href="#ba"/><use transform="matrix(0.0786522633744856,0,0,0.0786522633744856,49.7082304526749,0)" xlink:href="#bb"/><use transform="matrix(0.0786522633744856,0,0,0.0786522633744856,68.58477366255144,0)" xlink:href="#aY"/><use transform="matrix(0.0786522633744856,0,0,0.0786522633744856,84.31522633744856,0)" xlink:href="#bc"/></g><path fill="#b2b2b2" d="M30 0v-248h33v221h125V0H30" id="bd"/><path fill="#b2b2b2" d="M100-194c63 0 86 42 84 106H49c0 40 14 67 53 68 26 1 43-12 49-29l28 8c-11 28-37 45-77 45C44 4 14-33 15-96c1-61 26-98 85-98zm52 81c6-60-76-77-97-28-3 7-6 17-6 28h103" id="be"/><g id="H"><use transform="matrix(0.0786522633744856,0,0,0.0786522633744856,0,0)" xlink:href="#bd"/><use transform="matrix(0.0786522633744856,0,0,0.0786522633744856,15.73045267489712,0)" xlink:href="#be"/><use transform="matrix(0.0786522633744856,0,0,0.0786522633744856,31.46090534979424,0)" xlink:href="#be"/></g><path fill="#b2b2b2" d="M32 76v-337h29V76H32" id="bf"/><use transform="matrix(0.0786522633744856,0,0,0.0786522633744856,0,0)" xlink:href="#bf" id="I"/><path fill="#b2b2b2" d="M190 0L58-211 59 0H30v-248h39L202-35l-2-213h31V0h-41" id="bg"/><path fill="#b2b2b2" d="M100-194c62-1 85 37 85 99 1 63-27 99-86 99S16-35 15-95c0-66 28-99 85-99zM99-20c44 1 53-31 53-75 0-43-8-75-51-75s-53 32-53 75 10 74 51 75" id="bh"/><path fill="#b2b2b2" d="M108 0H70L1-190h34L89-25l56-165h34" id="bi"/><path fill="#b2b2b2" d="M210-169c-67 3-38 105-44 169h-31v-121c0-29-5-50-35-48C34-165 62-65 56 0H25l-1-190h30c1 10-1 24 2 32 10-44 99-50 107 0 11-21 27-35 58-36 85-2 47 119 55 194h-31v-121c0-29-5-49-35-48" id="bj"/><path fill="#b2b2b2" d="M115-194c53 0 69 39 70 98 0 66-23 100-70 100C84 3 66-7 56-30L54 0H23l1-261h32v101c10-23 28-34 59-34zm-8 174c40 0 45-34 45-75 0-40-5-75-45-74-42 0-51 32-51 76 0 43 10 73 51 73" id="bk"/><path fill="#b2b2b2" d="M114-163C36-179 61-72 57 0H25l-1-190h30c1 12-1 29 2 39 6-27 23-49 58-41v29" id="bl"/><g id="J"><use transform="matrix(0.0786522633744856,0,0,0.0786522633744856,0,0)" xlink:href="#bg"/><use transform="matrix(0.0786522633744856,0,0,0.0786522633744856,20.37093621399177,0)" xlink:href="#bh"/><use transform="matrix(0.0786522633744856,0,0,0.0786522633744856,36.10138888888889,0)" xlink:href="#bi"/><use transform="matrix(0.0786522633744856,0,0,0.0786522633744856,50.258796296296296,0)" xlink:href="#be"/><use transform="matrix(0.0786522633744856,0,0,0.0786522633744856,65.98924897119342,0)" xlink:href="#bj"/><use transform="matrix(0.0786522633744856,0,0,0.0786522633744856,89.50627572016461,0)" xlink:href="#bk"/><use transform="matrix(0.0786522633744856,0,0,0.0786522633744856,105.23672839506173,0)" xlink:href="#be"/><use transform="matrix(0.0786522633744856,0,0,0.0786522633744856,120.96718106995887,0)" xlink:href="#bl"/></g><path fill="#b2b2b2" d="M101-251c82-7 93 87 43 132L82-64C71-53 59-42 53-27h129V0H18c2-99 128-94 128-182 0-28-16-43-45-43s-46 15-49 41l-32-3c6-41 34-60 81-64" id="bm"/><path fill="#b2b2b2" d="M134-131c28 9 52 24 51 62-1 50-34 73-85 73S17-19 16-69c0-36 21-54 49-61-75-25-45-126 34-121 46 3 78 18 79 63 0 33-17 51-44 57zm-34-11c31 1 46-15 46-44 0-28-17-43-47-42-29 0-46 13-45 42 1 28 16 44 46 44zm1 122c35 0 51-18 51-52 0-30-18-46-53-46-33 0-51 17-51 47 0 34 19 51 53 51" id="bn"/><path fill="#b2b2b2" d="M68-38c1 34 0 65-14 84H32c9-13 17-26 17-46H33v-38h35" id="bo"/><g id="K"><use transform="matrix(0.0786522633744856,0,0,0.0786522633744856,0,0)" xlink:href="#bm"/><use transform="matrix(0.0786522633744856,0,0,0.0786522633744856,15.73045267489712,0)" xlink:href="#bn"/><use transform="matrix(0.0786522633744856,0,0,0.0786522633744856,31.46090534979424,0)" xlink:href="#bo"/></g><path fill="#b2b2b2" d="M101-251c68 0 85 55 85 127S166 4 100 4C33 4 14-52 14-124c0-73 17-127 87-127zm-1 229c47 0 54-49 54-102s-4-102-53-102c-51 0-55 48-55 102 0 53 5 102 54 102" id="bp"/><path fill="#b2b2b2" d="M27 0v-27h64v-190l-56 39v-29l58-41h29v221h61V0H27" id="bq"/><g id="L"><use transform="matrix(0.0786522633744856,0,0,0.0786522633744856,0,0)" xlink:href="#bm"/><use transform="matrix(0.0786522633744856,0,0,0.0786522633744856,15.73045267489712,0)" xlink:href="#bp"/><use transform="matrix(0.0786522633744856,0,0,0.0786522633744856,31.46090534979424,0)" xlink:href="#bq"/><use transform="matrix(0.0786522633744856,0,0,0.0786522633744856,47.191358024691354,0)" xlink:href="#bn"/></g><g id="M"><use transform="matrix(0.0786522633744856,0,0,0.0786522633744856,0,0)" xlink:href="#ai"/><use transform="matrix(0.0786522633744856,0,0,0.0786522633744856,20.37093621399177,0)" xlink:href="#aj"/><use transform="matrix(0.0786522633744856,0,0,0.0786522633744856,26.584465020576133,0)" xlink:href="#ak"/><use transform="matrix(0.0786522633744856,0,0,0.0786522633744856,42.31491769547326,0)" xlink:href="#al"/><use transform="matrix(0.0786522633744856,0,0,0.0786522633744856,56.47232510288066,0)" xlink:href="#al"/></g><path fill="#666" d="M219-77C219 17 104-2 11 0l48-248c73 2 169-15 169 57 0 38-24 54-60 60 29 5 51 21 51 54zm-26-111c0-44-62-31-105-33l-16 79c55 0 121 9 121-46zm-7 110c-1-49-69-36-119-38L50-27c61-1 137 12 136-51" id="br"/><path fill="#666" d="M11 0l48-248h184l-5 28H87l-15 79h140l-5 27H67L50-27h158l-5 27H11" id="bs"/><g id="N"><use transform="matrix(0.0786522633744856,0,0,0.0786522633744856,0,0)" xlink:href="#br"/><use transform="matrix(0.0786522633744856,0,0,0.0786522633744856,18.876543209876544,0)" xlink:href="#ak"/><use transform="matrix(0.0786522633744856,0,0,0.0786522633744856,34.60699588477367,0)" xlink:href="#aL"/><use transform="matrix(0.0786522633744856,0,0,0.0786522633744856,48.76440329218107,0)" xlink:href="#aM"/><use transform="matrix(0.0786522633744856,0,0,0.0786522633744856,62.92181069958848,0)" xlink:href="#bs"/><use transform="matrix(0.0786522633744856,0,0,0.0786522633744856,81.79835390946502,0)" xlink:href="#as"/><use transform="matrix(0.0786522633744856,0,0,0.0786522633744856,97.52880658436214,0)" xlink:href="#au"/></g><g id="O"><use transform="matrix(0.0786522633744856,0,0,0.0786522633744856,0,0)" xlink:href="#ax"/><use transform="matrix(0.0786522633744856,0,0,0.0786522633744856,9.359619341563786,0)" xlink:href="#am"/><use transform="matrix(0.0786522633744856,0,0,0.0786522633744856,26.348508230452673,0)" xlink:href="#ar"/><use transform="matrix(0.0786522633744856,0,0,0.0786522633744856,32.56203703703704,0)" xlink:href="#aL"/><use transform="matrix(0.0786522633744856,0,0,0.0786522633744856,46.71944444444444,0)" xlink:href="#aM"/><use transform="matrix(0.0786522633744856,0,0,0.0786522633744856,60.87685185185184,0)" xlink:href="#az"/><use transform="matrix(0.0786522633744856,0,0,0.0786522633744856,76.60730452674896,0)" xlink:href="#aB"/><use transform="matrix(0.0786522633744856,0,0,0.0786522633744856,84.47253086419752,0)" xlink:href="#ai"/><use transform="matrix(0.0786522633744856,0,0,0.0786522633744856,104.84346707818929,0)" xlink:href="#av"/><use transform="matrix(0.0786522633744856,0,0,0.0786522633744856,120.57391975308641,0)" xlink:href="#aj"/><use transform="matrix(0.0786522633744856,0,0,0.0786522633744856,126.78744855967078,0)" xlink:href="#aj"/><use transform="matrix(0.0786522633744856,0,0,0.0786522633744856,133.00097736625514,0)" xlink:href="#az"/><use transform="matrix(0.0786522633744856,0,0,0.0786522633744856,148.73143004115227,0)" xlink:href="#aL"/><use transform="matrix(0.0786522633744856,0,0,0.0786522633744856,162.88883744855966,0)" xlink:href="#aB"/><use transform="matrix(0.0786522633744856,0,0,0.0786522633744856,170.75406378600823,0)" xlink:href="#ar"/><use transform="matrix(0.0786522633744856,0,0,0.0786522633744856,176.96759259259258,0)" xlink:href="#av"/><use transform="matrix(0.0786522633744856,0,0,0.0786522633744856,192.6980452674897,0)" xlink:href="#as"/></g><g id="P"><use transform="matrix(0.0786522633744856,0,0,0.0786522633744856,0,0)" xlink:href="#am"/><use transform="matrix(0.0786522633744856,0,0,0.0786522633744856,16.98888888888889,0)" xlink:href="#ar"/><use transform="matrix(0.0786522633744856,0,0,0.0786522633744856,23.20241769547325,0)" xlink:href="#aL"/><use transform="matrix(0.0786522633744856,0,0,0.0786522633744856,37.359825102880656,0)" xlink:href="#aM"/><use transform="matrix(0.0786522633744856,0,0,0.0786522633744856,51.51723251028807,0)" xlink:href="#az"/><use transform="matrix(0.0786522633744856,0,0,0.0786522633744856,67.24768518518518,0)" xlink:href="#aB"/><use transform="matrix(0.0786522633744856,0,0,0.0786522633744856,75.11291152263374,0)" xlink:href="#al"/></g><g id="Q"><use transform="matrix(0.0786522633744856,0,0,0.0786522633744856,0,0)" xlink:href="#aI"/><use transform="matrix(0.0786522633744856,0,0,0.0786522633744856,16.516975308641975,0)" xlink:href="#am"/><use transform="matrix(0.0786522633744856,0,0,0.0786522633744856,33.50586419753087,0)" xlink:href="#ar"/><use transform="matrix(0.0786522633744856,0,0,0.0786522633744856,39.71939300411523,0)" xlink:href="#aL"/><use transform="matrix(0.0786522633744856,0,0,0.0786522633744856,53.876800411522645,0)" xlink:href="#aM"/><use transform="matrix(0.0786522633744856,0,0,0.0786522633744856,68.03420781893004,0)" xlink:href="#az"/><use transform="matrix(0.0786522633744856,0,0,0.0786522633744856,83.76466049382717,0)" xlink:href="#aB"/><use transform="matrix(0.0786522633744856,0,0,0.0786522633744856,91.62988683127571,0)" xlink:href="#ai"/><use transform="matrix(0.0786522633744856,0,0,0.0786522633744856,112.00082304526748,0)" xlink:href="#av"/><use transform="matrix(0.0786522633744856,0,0,0.0786522633744856,127.73127572016462,0)" xlink:href="#aj"/><use transform="matrix(0.0786522633744856,0,0,0.0786522633744856,133.94480452674898,0)" xlink:href="#aj"/><use transform="matrix(0.0786522633744856,0,0,0.0786522633744856,140.15833333333333,0)" xlink:href="#az"/><use transform="matrix(0.0786522633744856,0,0,0.0786522633744856,155.88878600823045,0)" xlink:href="#aL"/><use transform="matrix(0.0786522633744856,0,0,0.0786522633744856,170.04619341563784,0)" xlink:href="#aB"/><use transform="matrix(0.0786522633744856,0,0,0.0786522633744856,177.91141975308642,0)" xlink:href="#ar"/><use transform="matrix(0.0786522633744856,0,0,0.0786522633744856,184.12494855967077,0)" xlink:href="#av"/><use transform="matrix(0.0786522633744856,0,0,0.0786522633744856,199.8554012345679,0)" xlink:href="#as"/></g><g id="R"><use transform="matrix(0.0786522633744856,0,0,0.0786522633744856,0,0)" xlink:href="#aP"/><use transform="matrix(0.0786522633744856,0,0,0.0786522633744856,15.73045267489712,0)" xlink:href="#az"/><use transform="matrix(0.0786522633744856,0,0,0.0786522633744856,31.46090534979424,0)" xlink:href="#aB"/><use transform="matrix(0.0786522633744856,0,0,0.0786522633744856,39.3261316872428,0)" xlink:href="#am"/><use transform="matrix(0.0786522633744856,0,0,0.0786522633744856,56.31502057613169,0)" xlink:href="#ar"/><use transform="matrix(0.0786522633744856,0,0,0.0786522633744856,62.52854938271605,0)" xlink:href="#aL"/><use transform="matrix(0.0786522633744856,0,0,0.0786522633744856,76.68595679012346,0)" xlink:href="#aM"/><use transform="matrix(0.0786522633744856,0,0,0.0786522633744856,90.84336419753086,0)" xlink:href="#az"/><use transform="matrix(0.0786522633744856,0,0,0.0786522633744856,106.57381687242798,0)" xlink:href="#aB"/><use transform="matrix(0.0786522633744856,0,0,0.0786522633744856,114.43904320987654,0)" xlink:href="#ai"/><use transform="matrix(0.0786522633744856,0,0,0.0786522633744856,134.8099794238683,0)" xlink:href="#av"/><use transform="matrix(0.0786522633744856,0,0,0.0786522633744856,150.54043209876542,0)" xlink:href="#aj"/><use transform="matrix(0.0786522633744856,0,0,0.0786522633744856,156.75396090534977,0)" xlink:href="#aj"/><use transform="matrix(0.0786522633744856,0,0,0.0786522633744856,162.96748971193412,0)" xlink:href="#az"/><use transform="matrix(0.0786522633744856,0,0,0.0786522633744856,178.69794238683124,0)" xlink:href="#aL"/><use transform="matrix(0.0786522633744856,0,0,0.0786522633744856,192.8553497942387,0)" xlink:href="#aB"/><use transform="matrix(0.0786522633744856,0,0,0.0786522633744856,200.7205761316872,0)" xlink:href="#ar"/><use transform="matrix(0.0786522633744856,0,0,0.0786522633744856,206.93410493827156,0)" xlink:href="#av"/><use transform="matrix(0.0786522633744856,0,0,0.0786522633744856,222.66455761316868,0)" xlink:href="#as"/><use transform="matrix(0.0786522633744856,0,0,0.0786522633744856,238.3950102880658,0)" xlink:href="#aJ"/><use transform="matrix(0.0786522633744856,0,0,0.0786522633744856,247.7546296296296,0)" xlink:href="#aD"/><use transform="matrix(0.0786522633744856,0,0,0.0786522633744856,266.6311728395061,0)" xlink:href="#aB"/><use transform="matrix(0.0786522633744856,0,0,0.0786522633744856,274.4963991769547,0)" xlink:href="#aO"/><use transform="matrix(0.0786522633744856,0,0,0.0786522633744856,283.85601851851845,0)" xlink:href="#ar"/><use transform="matrix(0.0786522633744856,0,0,0.0786522633744856,290.0695473251028,0)" xlink:href="#as"/><use transform="matrix(0.0786522633744856,0,0,0.0786522633744856,305.7999999999999,0)" xlink:href="#aP"/></g><path fill="#666" d="M58-38C53-5 46 26 28 46H7C19 32 27 18 32 0H17l7-38h34" id="bt"/><g id="S"><use transform="matrix(0.0786522633744856,0,0,0.0786522633744856,0,0)" xlink:href="#aD"/><use transform="matrix(0.0786522633744856,0,0,0.0786522633744856,18.876543209876544,0)" xlink:href="#ai"/><use transform="matrix(0.0786522633744856,0,0,0.0786522633744856,39.24747942386831,0)" xlink:href="#ar"/><use transform="matrix(0.0786522633744856,0,0,0.0786522633744856,45.46100823045268,0)" xlink:href="#aB"/><use transform="matrix(0.0786522633744856,0,0,0.0786522633744856,53.326234567901245,0)" xlink:href="#aE"/><use transform="matrix(0.0786522633744856,0,0,0.0786522633744856,65.36003086419754,0)" xlink:href="#bt"/></g><g id="T"><use transform="matrix(0.0786522633744856,0,0,0.0786522633744856,0,0)" xlink:href="#am"/><use transform="matrix(0.0786522633744856,0,0,0.0786522633744856,17.224845679012347,0)" xlink:href="#ai"/><use transform="matrix(0.0786522633744856,0,0,0.0786522633744856,37.595781893004116,0)" xlink:href="#ar"/><use transform="matrix(0.0786522633744856,0,0,0.0786522633744856,43.80931069958848,0)" xlink:href="#aB"/><use transform="matrix(0.0786522633744856,0,0,0.0786522633744856,51.67453703703705,0)" xlink:href="#aE"/><use transform="matrix(0.0786522633744856,0,0,0.0786522633744856,63.708333333333336,0)" xlink:href="#bt"/></g><g id="U"><use transform="matrix(0.0786522633744856,0,0,0.0786522633744856,0,0)" xlink:href="#aD"/><use transform="matrix(0.0786522633744856,0,0,0.0786522633744856,18.876543209876544,0)" xlink:href="#aB"/><use transform="matrix(0.0786522633744856,0,0,0.0786522633744856,26.741769547325106,0)" xlink:href="#aO"/><use transform="matrix(0.0786522633744856,0,0,0.0786522633744856,36.10138888888889,0)" xlink:href="#ar"/><use transform="matrix(0.0786522633744856,0,0,0.0786522633744856,42.31491769547326,0)" xlink:href="#as"/><use transform="matrix(0.0786522633744856,0,0,0.0786522633744856,58.04537037037038,0)" xlink:href="#aP"/></g><g id="V"><use transform="matrix(0.0786522633744856,0,0,0.0786522633744856,0,0)" xlink:href="#au"/><use transform="matrix(0.0786522633744856,0,0,0.0786522633744856,15.73045267489712,0)" xlink:href="#ak"/><use transform="matrix(0.0786522633744856,0,0,0.0786522633744856,31.46090534979424,0)" xlink:href="#aB"/><use transform="matrix(0.0786522633744856,0,0,0.0786522633744856,39.3261316872428,0)" xlink:href="#az"/><use transform="matrix(0.0786522633744856,0,0,0.0786522633744856,55.056584362139915,0)" xlink:href="#aK"/></g><path fill="#666" d="M68-162c25-46 127-43 121 31C183-60 169 1 98 4 69 5 53-11 43-31L36 0H5l52-261h31zm88 36c2-27-9-43-34-43-55 0-70 51-70 103 0 29 15 45 43 46 52 0 58-58 61-106" id="bu"/><g id="W"><use transform="matrix(0.0786522633744856,0,0,0.0786522633744856,0,0)" xlink:href="#aI"/><use transform="matrix(0.0786522633744856,0,0,0.0786522633744856,16.516975308641975,0)" xlink:href="#bu"/><use transform="matrix(0.0786522633744856,0,0,0.0786522633744856,32.2474279835391,0)" xlink:href="#av"/><use transform="matrix(0.0786522633744856,0,0,0.0786522633744856,47.97788065843622,0)" xlink:href="#av"/><use transform="matrix(0.0786522633744856,0,0,0.0786522633744856,63.70833333333334,0)" xlink:href="#aj"/><use transform="matrix(0.0786522633744856,0,0,0.0786522633744856,69.9218621399177,0)" xlink:href="#az"/><use transform="matrix(0.0786522633744856,0,0,0.0786522633744856,85.65231481481483,0)" xlink:href="#ak"/><use transform="matrix(0.0786522633744856,0,0,0.0786522633744856,101.38276748971195,0)" xlink:href="#as"/></g><path fill="#666" d="M67-158c15-20 31-36 64-36 94 0 33 127 27 194h-32l25-140c3-38-53-32-70-12C52-117 51-51 37 0H6l51-261h31" id="bv"/><g id="X"><use transform="matrix(0.0786522633744856,0,0,0.0786522633744856,0,0)" xlink:href="#aL"/><use transform="matrix(0.0786522633744856,0,0,0.0786522633744856,14.157407407407407,0)" xlink:href="#bv"/><use transform="matrix(0.0786522633744856,0,0,0.0786522633744856,29.887860082304528,0)" xlink:href="#az"/><use transform="matrix(0.0786522633744856,0,0,0.0786522633744856,45.61831275720166,0)" xlink:href="#aL"/><use transform="matrix(0.0786522633744856,0,0,0.0786522633744856,59.775720164609055,0)" xlink:href="#aM"/><use transform="matrix(0.0786522633744856,0,0,0.0786522633744856,73.93312757201646,0)" xlink:href="#aG"/><use transform="matrix(0.0786522633744856,0,0,0.0786522633744856,92.809670781893,0)" xlink:href="#ak"/><use transform="matrix(0.0786522633744856,0,0,0.0786522633744856,108.54012345679013,0)" xlink:href="#aE"/><use transform="matrix(0.0786522633744856,0,0,0.0786522633744856,122.69753086419753,0)" xlink:href="#aR"/><use transform="matrix(0.0786522633744856,0,0,0.0786522633744856,146.21455761316872,0)" xlink:href="#az"/><use transform="matrix(0.0786522633744856,0,0,0.0786522633744856,161.94501028806584,0)" xlink:href="#as"/><use transform="matrix(0.0786522633744856,0,0,0.0786522633744856,177.67546296296297,0)" xlink:href="#aB"/><use transform="matrix(0.0786522633744856,0,0,0.0786522633744856,185.54068930041151,0)" xlink:href="#aJ"/><use transform="matrix(0.0786522633744856,0,0,0.0786522633744856,194.9003086419753,0)" xlink:href="#aD"/><use transform="matrix(0.0786522633744856,0,0,0.0786522633744856,213.77685185185186,0)" xlink:href="#aB"/><use transform="matrix(0.0786522633744856,0,0,0.0786522633744856,221.6420781893004,0)" xlink:href="#aO"/><use transform="matrix(0.0786522633744856,0,0,0.0786522633744856,231.0016975308642,0)" xlink:href="#ar"/><use transform="matrix(0.0786522633744856,0,0,0.0786522633744856,237.21522633744854,0)" xlink:href="#as"/><use transform="matrix(0.0786522633744856,0,0,0.0786522633744856,252.94567901234566,0)" xlink:href="#aP"/></g><g id="Y"><use transform="matrix(0.0786522633744856,0,0,0.0786522633744856,0,0)" xlink:href="#aS"/><use transform="matrix(0.0786522633744856,0,0,0.0786522633744856,15.73045267489712,0)" xlink:href="#aO"/><use transform="matrix(0.0786522633744856,0,0,0.0786522633744856,25.090072016460905,0)" xlink:href="#ar"/><use transform="matrix(0.0786522633744856,0,0,0.0786522633744856,31.30360082304527,0)" xlink:href="#aL"/><use transform="matrix(0.0786522633744856,0,0,0.0786522633744856,45.46100823045268,0)" xlink:href="#az"/><use transform="matrix(0.0786522633744856,0,0,0.0786522633744856,61.191460905349786,0)" xlink:href="#bt"/></g><g id="Z"><use transform="matrix(0.0786522633744856,0,0,0.0786522633744856,0,0)" xlink:href="#aS"/><use transform="matrix(0.0786522633744856,0,0,0.0786522633744856,15.73045267489712,0)" xlink:href="#ak"/><use transform="matrix(0.0786522633744856,0,0,0.0786522633744856,31.46090534979424,0)" xlink:href="#aE"/><use transform="matrix(0.0786522633744856,0,0,0.0786522633744856,45.61831275720164,0)" xlink:href="#aK"/></g><g id="aa"><use transform="matrix(0.0786522633744856,0,0,0.0786522633744856,0,0)" xlink:href="#aL"/><use transform="matrix(0.0786522633744856,0,0,0.0786522633744856,14.157407407407407,0)" xlink:href="#bv"/><use transform="matrix(0.0786522633744856,0,0,0.0786522633744856,29.887860082304528,0)" xlink:href="#az"/><use transform="matrix(0.0786522633744856,0,0,0.0786522633744856,45.61831275720166,0)" xlink:href="#aL"/><use transform="matrix(0.0786522633744856,0,0,0.0786522633744856,59.775720164609055,0)" xlink:href="#aM"/><use transform="matrix(0.0786522633744856,0,0,0.0786522633744856,73.93312757201646,0)" xlink:href="#ai"/><use transform="matrix(0.0786522633744856,0,0,0.0786522633744856,94.30406378600823,0)" xlink:href="#ar"/><use transform="matrix(0.0786522633744856,0,0,0.0786522633744856,100.51759259259259,0)" xlink:href="#aB"/><use transform="matrix(0.0786522633744856,0,0,0.0786522633744856,108.38281893004115,0)" xlink:href="#aE"/><use transform="matrix(0.0786522633744856,0,0,0.0786522633744856,122.54022633744856,0)" xlink:href="#aJ"/><use transform="matrix(0.0786522633744856,0,0,0.0786522633744856,131.89984567901234,0)" xlink:href="#aD"/><use transform="matrix(0.0786522633744856,0,0,0.0786522633744856,150.7763888888889,0)" xlink:href="#aB"/><use transform="matrix(0.0786522633744856,0,0,0.0786522633744856,158.64161522633745,0)" xlink:href="#aO"/><use transform="matrix(0.0786522633744856,0,0,0.0786522633744856,168.00123456790124,0)" xlink:href="#ar"/><use transform="matrix(0.0786522633744856,0,0,0.0786522633744856,174.21476337448559,0)" xlink:href="#as"/><use transform="matrix(0.0786522633744856,0,0,0.0786522633744856,189.9452160493827,0)" xlink:href="#aP"/></g><g id="ab"><use transform="matrix(0.0786522633744856,0,0,0.0786522633744856,0,0)" xlink:href="#aL"/><use transform="matrix(0.0786522633744856,0,0,0.0786522633744856,14.157407407407407,0)" xlink:href="#ar"/><use transform="matrix(0.0786522633744856,0,0,0.0786522633744856,20.37093621399177,0)" xlink:href="#aB"/><use transform="matrix(0.0786522633744856,0,0,0.0786522633744856,28.23616255144033,0)" xlink:href="#aE"/><use transform="matrix(0.0786522633744856,0,0,0.0786522633744856,42.393569958847735,0)" xlink:href="#aK"/></g><g id="ac"><use transform="matrix(0.0786522633744856,0,0,0.0786522633744856,0,0)" xlink:href="#aS"/><use transform="matrix(0.0786522633744856,0,0,0.0786522633744856,15.73045267489712,0)" xlink:href="#aQ"/><use transform="matrix(0.0786522633744856,0,0,0.0786522633744856,31.46090534979424,0)" xlink:href="#aO"/><use transform="matrix(0.0786522633744856,0,0,0.0786522633744856,40.820524691358024,0)" xlink:href="#aL"/><use transform="matrix(0.0786522633744856,0,0,0.0786522633744856,54.97793209876543,0)" xlink:href="#bv"/><use transform="matrix(0.0786522633744856,0,0,0.0786522633744856,70.70838477366254,0)" xlink:href="#ak"/><use transform="matrix(0.0786522633744856,0,0,0.0786522633744856,86.43883744855967,0)" xlink:href="#aL"/><use transform="matrix(0.0786522633744856,0,0,0.0786522633744856,100.59624485596707,0)" xlink:href="#az"/><use transform="matrix(0.0786522633744856,0,0,0.0786522633744856,116.3266975308642,0)" xlink:href="#aJ"/><use transform="matrix(0.0786522633744856,0,0,0.0786522633744856,125.68631687242798,0)" xlink:href="#aD"/><use transform="matrix(0.0786522633744856,0,0,0.0786522633744856,144.56286008230452,0)" xlink:href="#aB"/><use transform="matrix(0.0786522633744856,0,0,0.0786522633744856,152.42808641975307,0)" xlink:href="#aO"/><use transform="matrix(0.0786522633744856,0,0,0.0786522633744856,161.78770576131686,0)" xlink:href="#ar"/><use transform="matrix(0.0786522633744856,0,0,0.0786522633744856,168.0012345679012,0)" xlink:href="#as"/><use transform="matrix(0.0786522633744856,0,0,0.0786522633744856,183.7316872427983,0)" xlink:href="#aP"/></g><g id="ad"><use transform="matrix(0.0786522633744856,0,0,0.0786522633744856,0,0)" xlink:href="#an"/><use transform="matrix(0.0786522633744856,0,0,0.0786522633744856,7.86522633744856,0)" xlink:href="#aF"/><use transform="matrix(0.0786522633744856,0,0,0.0786522633744856,28.23616255144033,0)" xlink:href="#bt"/></g><g id="ae"><use transform="matrix(0.0786522633744856,0,0,0.0786522633744856,0,0)" xlink:href="#aF"/><use transform="matrix(0.0786522633744856,0,0,0.0786522633744856,20.37093621399177,0)" xlink:href="#ak"/><use transform="matrix(0.0786522633744856,0,0,0.0786522633744856,36.10138888888889,0)" xlink:href="#aB"/><use transform="matrix(0.0786522633744856,0,0,0.0786522633744856,43.96661522633746,0)" xlink:href="#az"/><use transform="matrix(0.0786522633744856,0,0,0.0786522633744856,59.697067901234576,0)" xlink:href="#aK"/></g><g id="ag"><use transform="matrix(0.0786522633744856,0,0,0.0786522633744856,0,0)" xlink:href="#ai"/><use transform="matrix(0.0786522633744856,0,0,0.0786522633744856,20.37093621399177,0)" xlink:href="#aj"/><use transform="matrix(0.0786522633744856,0,0,0.0786522633744856,26.584465020576133,0)" xlink:href="#ak"/><use transform="matrix(0.0786522633744856,0,0,0.0786522633744856,42.31491769547326,0)" xlink:href="#al"/><use transform="matrix(0.0786522633744856,0,0,0.0786522633744856,56.47232510288066,0)" xlink:href="#al"/></g><g id="ah"><use transform="matrix(0.0786522633744856,0,0,0.0786522633744856,0,0)" xlink:href="#aD"/><use transform="matrix(0.0786522633744856,0,0,0.0786522633744856,18.876543209876544,0)" xlink:href="#aB"/><use transform="matrix(0.0786522633744856,0,0,0.0786522633744856,26.741769547325106,0)" xlink:href="#ak"/><use transform="matrix(0.0786522633744856,0,0,0.0786522633744856,42.47222222222223,0)" xlink:href="#aO"/><use transform="matrix(0.0786522633744856,0,0,0.0786522633744856,51.831841563786014,0)" xlink:href="#aB"/></g></defs></g></svg>